<?xml version="1.0" encoding="utf-8"?>
<!-- Generator: Adobe Illustrator 16.2.1, SVG Export Plug-In . SVG Version: 6.00 Build 0)  -->
<!DOCTYPE svg PUBLIC "-//W3C//DTD SVG 1.1//EN" "http://www.w3.org/Graphics/SVG/1.1/DTD/svg11.dtd">
<svg version="1.1" id="Layer_1" xmlns="http://www.w3.org/2000/svg" xmlns:xlink="http://www.w3.org/1999/xlink" x="0px" y="0px"
	 width="196px" height="41px" viewBox="0 0 196 41" enable-background="new 0 0 196 41" xml:space="preserve">
<g id="obj_1">
	<g id="obj_26" transform="matrix(1,0,0,1,193.197,14.548)">
		<path d="M-154.842-0.145l0.217,0.712"/>
	</g>
	<g id="obj_27" transform="matrix(1,0,0,1,155.056,3.056)">
		<path d="M-154.841,14.083l20.336-1.636l0,0l-9.709-12.592l0,0C-149.42,2.465-153.583,8.396-154.841,14.083z"/>
	</g>
	<g id="obj_28" transform="matrix(1,0,0,1,154.842,16.947)">
		<path d="M-150.037,16.44c-3.818-4.398-5.526-10.551-4.521-16.288l0,0l15.896-0.296l0,0L-150.037,16.44z"/>
	</g>
	<g id="obj_29" transform="matrix(1,0,0,1,159.659,21.236)">
		<path d="M-138.468,18.864l-6.57-19.008l-9.804,12.283l0,0C-150.827,16.358-144.274,19.319-138.468,18.864z"/>
	</g>
	<g id="obj_30" transform="matrix(1,0,0,1,171.905,24.994)">
		<path d="M-154.843-0.144l19.076,6.371c-3.177,4.881-9.17,8.26-14.963,8.871L-154.843-0.144z"/>
	</g>
	<g id="obj_31" transform="matrix(1,0,0,1,165.737,1)">
		<path d="M-154.843,1.885l13.205,15.169l0,0l3.703-15.458c-0.132-0.06-0.258-0.119-0.393-0.177l0,0
			C-143.55-0.821-149.753-0.646-154.843,1.885"/>
	</g>
	<g id="obj_32" transform="matrix(1,0,0,1,179.232,2.656)">
		<path d="M-154.841,19.647l3.234-19.792c0.318,0.137,0.421,0.185,0.522,0.234c2.388,1.145,4.494,2.779,6.245,4.77
			c1.922,2.186,3.375,4.786,4.175,7.593L-154.841,19.647"/>
	</g>
	<g id="obj_33" transform="matrix(1,0,0,1,176.259,15.353)">
		<path d="M-154.842,9.893l17.103-10.038c0.388,1.194,0.498,1.619,0.652,2.863c0.562,4.535-0.535,9.251-3,13.095L-154.842,9.893"/>
	</g>
</g>
</svg>
