<?xml version="1.0" encoding="utf-8"?>
<!-- Generator: Adobe Illustrator 16.2.1, SVG Export Plug-In . SVG Version: 6.00 Build 0)  -->
<!DOCTYPE svg PUBLIC "-//W3C//DTD SVG 1.1//EN" "http://www.w3.org/Graphics/SVG/1.1/DTD/svg11.dtd">
<svg version="1.1" id="Layer_1" xmlns="http://www.w3.org/2000/svg" xmlns:xlink="http://www.w3.org/1999/xlink" x="0px" y="0px"
	 width="143.854px" height="144.72px" viewBox="-52.177 -51.735 143.854 144.72"
	 enable-background="new -52.177 -51.735 143.854 144.72" xml:space="preserve">
<g id="obj_1">
	<g id="obj_26" transform="matrix(1,0,0,1,193.197,14.548)">
		<path d="M-107-16.069l0.774,2.543"/>
	</g>
	<g id="obj_27" transform="matrix(1,0,0,1,155.056,3.056)">
		<path d="M-205.041,5.193l72.611-5.842l0,0l-34.667-44.959l0,0C-185.683-36.29-200.548-15.113-205.041,5.193z"/>
	</g>
	<g id="obj_28" transform="matrix(1,0,0,1,154.842,16.947)">
		<path d="M-188.437,49.315c-13.634-15.704-19.732-37.672-16.143-58.155l0,0l56.758-1.059l0,0L-188.437,49.315z"/>
	</g>
	<g id="obj_29" transform="matrix(1,0,0,1,159.659,21.236)">
		<path d="M-134.747,68.995l-23.458-67.869l-35.006,43.858l0,0C-178.876,60.048-155.479,70.619-134.747,68.995z"/>
	</g>
	<g id="obj_30" transform="matrix(1,0,0,1,171.905,24.994)">
		<path d="M-161.736,10.786l68.113,22.748c-11.344,17.428-32.744,29.492-53.428,31.675L-161.736,10.786z"/>
	</g>
	<g id="obj_31" transform="matrix(1,0,0,1,165.737,1)">
		<path d="M-177.591-43.647l47.149,54.164l0,0l13.221-55.194c-0.471-0.214-0.92-0.425-1.402-0.633l0,0
			C-137.269-53.308-159.418-52.684-177.591-43.647"/>
	</g>
	<g id="obj_32" transform="matrix(1,0,0,1,179.232,2.656)">
		<path d="M-142.894,24.031l11.546-70.669c1.135,0.49,1.503,0.661,1.864,0.837c8.527,4.088,16.047,9.922,22.299,17.031
			c6.862,7.806,12.051,17.088,14.906,27.111L-142.894,24.031"/>
	</g>
	<g id="obj_33" transform="matrix(1,0,0,1,176.259,15.353)">
		<path d="M-150.54,21.842l61.068-35.841c1.386,4.263,1.778,5.781,2.327,10.222c2.007,16.191-1.909,33.033-10.711,46.757
			L-150.54,21.842"/>
	</g>
</g>
</svg>
